<svg width="80" height="80" viewBox="0 0 80 80" fill="none" xmlns="http://www.w3.org/2000/svg">
    <rect width="8" height="20" rx="4" transform="matrix(-1 0 0 1 44 0)" fill="#21578A" />
    <rect width="8" height="20" rx="4" transform="matrix(-1 0 0 1 44 60)" fill="#21578A"
        fill-opacity="0.6" />
    <rect width="8" height="20" rx="4" transform="matrix(0 -1 -1 0 80 44)" fill="#21578A"
        fill-opacity="0.4" />
    <rect width="8" height="20" rx="4" transform="matrix(0 -1 -1 0 20 44)" fill="#21578A"
        fill-opacity="0.8" />
    <rect width="8" height="20" rx="4"
        transform="matrix(0.707107 -0.707107 -0.707107 -0.707107 65.457 71.1133)" fill="#21578A"
        fill-opacity="0.5" />
    <rect width="8" height="20" rx="4"
        transform="matrix(0.707107 -0.707107 -0.707107 -0.707107 23.0312 28.6875)" fill="#21578A"
        fill-opacity="0.9" />
    <rect width="8" height="20" rx="4"
        transform="matrix(-0.707107 -0.707107 -0.707107 0.707107 71 14.6562)" fill="#21578A"
        fill-opacity="0.3" />
    <rect width="8" height="20" rx="4"
        transform="matrix(-0.707107 -0.707107 -0.707107 0.707107 28.6875 56.9707)" fill="#21578A"
        fill-opacity="0.7" />
</svg>